<svg width="34" height="34" viewBox="0 0 34 34" fill="none" xmlns="http://www.w3.org/2000/svg">
<g opacity="0.9" clip-path="url(#clip0)">
<path d="M26.9166 9.93889L26.9166 14.897C26.9166 15.2882 27.2333 15.6055 27.625 15.6055L32.5834 15.6055L32.5834 31.1889L1.41658 31.1889L1.41658 9.93889L9.91658 9.93889L9.91658 8.52205L1.41658 8.52205C0.635268 8.52205 -1.02494e-06 9.15758 -9.90788e-07 9.93889L-6.19207e-08 31.1889C-2.77685e-08 31.9702 0.635269 32.6055 1.41658 32.6055L32.5834 32.6055C33.3647 32.6055 34 31.9702 34 31.1889L34 12.772C34 12.5845 33.9256 12.4037 33.7925 12.2714L30.2509 8.72957C30.1183 8.5965 29.9383 8.52205 29.75 8.52205L21.9584 8.52205L21.9584 9.93889L26.9166 9.93889ZM29.4569 9.93889L32.5834 13.0654L32.5834 14.1889L28.3334 14.1889L28.3334 9.93889L29.4569 9.93889Z" fill="white"/>
<path d="M12.7499 12.772L6.37492 12.772C5.98323 12.772 5.6665 13.0896 5.6665 13.4805L5.6665 27.647C5.6665 28.0382 5.98323 28.3555 6.37492 28.3555L14.8749 28.3555C15.2666 28.3555 15.5833 28.0382 15.5833 27.647L15.5833 15.6055L14.1665 15.6055L14.1665 26.9389L7.08334 26.9389L7.08334 14.1889L12.7499 14.1889L12.7499 12.772Z" fill="white"/>
<path d="M18.4165 28.3555L18.4165 21.272L19.8333 21.272L19.8333 28.3555L18.4165 28.3555Z" fill="white"/>
<path d="M18.4165 19.8555L18.4165 18.4389L19.8333 18.4389L19.8333 19.8555L18.4165 19.8555Z" fill="white"/>
<path d="M22.6665 28.3555L22.6665 24.1055L24.0833 24.1055L24.0833 28.3555L22.6665 28.3555Z" fill="white"/>
<path d="M22.6665 22.689L22.6665 15.6056L24.0833 15.6056L24.0833 22.689L22.6665 22.689Z" fill="white"/>
<path d="M26.9165 28.3555L26.9165 21.272L28.3333 21.272L28.3333 28.3555L26.9165 28.3555Z" fill="white"/>
<path d="M26.9165 19.8555L26.9165 17.0221L28.3333 17.0221L28.3333 19.8555L26.9165 19.8555Z" fill="white"/>
<path d="M10.074 2.01144L9.07222 3.01298C8.24344 3.84176 8.24292 5.18986 9.07222 6.01838L11.0756 8.02224L16.084 13.031C16.0905 13.0375 16.0996 13.0395 16.1069 13.0458C16.1613 13.0961 16.2228 13.1373 16.2916 13.1685C16.3066 13.1755 16.3201 13.184 16.3357 13.1897C16.3447 13.1931 16.3517 13.1988 16.3611 13.2017L20.8689 14.7049C21.1231 14.7897 21.4043 14.7233 21.5934 14.5334C21.7281 14.3988 21.8009 14.2175 21.8009 14.0325C21.8009 13.9576 21.789 13.8823 21.7641 13.8087L20.2619 9.30082C20.2583 9.29096 20.2518 9.2824 20.2484 9.27255C20.242 9.25569 20.2329 9.24142 20.2256 9.22508C20.1945 9.15919 20.1556 9.09979 20.1073 9.04791C20.1011 9.0409 20.0982 9.03105 20.0918 9.02404L15.0833 4.0153L13.0799 2.01144C12.2506 1.18266 10.9025 1.18266 10.074 2.01144ZM17.8967 12.2198L18.5888 11.528L19.2809 10.8359L19.973 12.9127L17.8967 12.2198ZM18.5888 9.52391L17.5873 10.5257L16.5849 11.5272L12.5777 7.52005L13.5795 6.5185L14.5819 5.51696L18.5888 9.52391ZM12.0779 3.01298L13.5801 4.5162L12.5785 5.51774L11.5762 6.51928L10.074 5.01632C9.79776 4.74006 9.7962 4.29026 10.074 4.014L11.0756 3.0122C11.351 2.73672 11.8016 2.73672 12.0779 3.01298Z" fill="white"/>
</g>
<defs>
<clipPath id="clip0">
<rect width="34" height="34" fill="white" transform="translate(0 34) rotate(-90)"/>
</clipPath>
</defs>
</svg>
