<svg width="35" height="35" viewBox="0 0 35 35" fill="none" xmlns="http://www.w3.org/2000/svg">
<g opacity="0.9" clip-path="url(#clip0)">
<path d="M17.3058 0.131805L12.8176 3.97874L8.32943 0.131805C8.20496 0.0244519 8.03888 -0.0203937 7.87706 0.00843016C7.71524 0.0373036 7.57535 0.13771 7.49578 0.281322L0.576496 12.7366C0.458481 12.9486 0.494793 13.2135 0.666238 13.3871L4.41654 17.1702L0.667825 20.919C0.492661 21.0941 0.456895 21.3654 0.581309 21.5796L8.19272 34.727C8.28136 34.8802 8.43892 34.9812 8.61567 34.9978C8.79242 35.0138 8.9655 34.9433 9.08084 34.8087L12.8993 30.3537L18.0253 34.1983C18.1513 34.2933 18.3125 34.3286 18.4675 34.2955C18.6218 34.2629 18.7542 34.1647 18.8311 34.0263L20.9591 30.1959C21.0112 30.2123 21.0637 30.2286 21.1212 30.2286L26.1803 30.2286C26.8484 30.2286 27.4716 29.8692 27.8076 29.2898L34.2323 18.1611C34.4048 17.8614 34.4913 17.526 34.4913 17.1901C34.4913 17.1869 34.4907 17.1837 34.4907 17.1804C34.4907 17.1774 34.4924 17.1749 34.4924 17.172C34.4924 17.1662 34.4893 17.1614 34.489 17.1556C34.4833 16.8313 34.3989 16.508 34.2323 16.2187L27.8268 5.12416C27.4796 4.52441 26.8334 4.15166 26.1413 4.15166L20.5056 4.15166L18.1283 0.261577C18.0444 0.124858 17.9051 0.031398 17.747 0.00684281C17.5889 -0.0182579 17.4271 0.0271332 17.3058 0.131805ZM18.7981 17.7189L12.7953 28.5236L6.19241 17.7189L18.7981 17.7189ZM6.17021 16.6251L12.7953 5.78409L18.8183 16.6251L6.17021 16.6251ZM1.73221 12.9086L8.12649 1.39804L12.1082 4.81037L5.08958 16.2957L1.73221 12.9086ZM1.73806 21.3953L5.10167 18.0317L12.1438 29.5554L8.75293 33.5115L1.73806 21.3953ZM13.5271 29.4579L19.8978 17.9909L24.5621 21.4589L18.1796 32.947L13.5271 29.4579ZM26.8607 28.7423C26.7202 28.9843 26.4596 29.1349 26.1803 29.1349L21.5487 29.1349L25.7509 21.571C25.7974 21.4872 25.8198 21.3964 25.8198 21.3061C25.8198 21.1379 25.7424 20.9729 25.5993 20.8666L21.3653 17.7189L33.2248 17.7189L26.8607 28.7423ZM26.1413 5.24541C26.4447 5.24541 26.7277 5.40882 26.8799 5.67158L33.2041 16.6251L21.3534 16.6251L25.6008 13.4395C25.7434 13.3327 25.8198 13.1687 25.8198 13.0015C25.8198 12.9043 25.7936 12.8055 25.7397 12.7169L21.1739 5.24541L26.1413 5.24541ZM24.5471 12.8627L19.9109 16.3403L13.5122 4.82306L17.5296 1.37988L24.5471 12.8627Z" fill="white"/>
</g>
<defs>
<clipPath id="clip0">
<rect width="35" height="35" fill="white" transform="translate(0 35) rotate(-90)"/>
</clipPath>
</defs>
</svg>
