<svg width="24" height="24" viewBox="0 0 24 24" fill="none" xmlns="http://www.w3.org/2000/svg">
<circle cx="12" cy="12" r="11.25" stroke="#1356BC" stroke-width="1.5"/>
<mask id="mask0" mask-type="alpha" maskUnits="userSpaceOnUse" x="0" y="0" width="24" height="24">
<circle cx="12" cy="12" r="12" fill="#1356BC"/>
</mask>
<g mask="url(#mask0)">
<mask id="path-3-inside-1" fill="white">
<path d="M17.5339 15.3356C16.6815 14.4832 15.6669 13.8522 14.5599 13.4702C15.7455 12.6536 16.5244 11.287 16.5244 9.74174C16.5244 7.24696 14.4948 5.21729 12 5.21729C9.5052 5.21729 7.47552 7.24696 7.47552 9.74174C7.47552 11.287 8.25443 12.6536 9.44005 13.4702C8.33309 13.8522 7.31851 14.4832 6.46611 15.3356C4.98796 16.8137 4.17389 18.779 4.17389 20.8695H5.39672C5.39672 17.2284 8.35892 14.2662 12 14.2662C15.641 14.2662 18.6032 17.2284 18.6032 20.8695H19.8261C19.8261 18.779 19.012 16.8137 17.5339 15.3356ZM12 13.0434C10.1795 13.0434 8.69835 11.5623 8.69835 9.74174C8.69835 7.9212 10.1795 6.44011 12 6.44011C13.8205 6.44011 15.3016 7.9212 15.3016 9.74174C15.3016 11.5623 13.8205 13.0434 12 13.0434Z"/>
</mask>
<path d="M17.5339 15.3356L18.5946 14.2749L18.5945 14.2749L17.5339 15.3356ZM14.5599 13.4702L13.7091 12.2349L11.2633 13.9194L14.0706 14.8882L14.5599 13.4702ZM9.44005 13.4702L9.92934 14.8882L12.7368 13.9194L10.2909 12.2348L9.44005 13.4702ZM6.46611 15.3356L5.40547 14.2749L5.40544 14.2749L6.46611 15.3356ZM4.17389 20.8695H2.67389V22.3695H4.17389V20.8695ZM5.39672 20.8695V22.3695H6.89672V20.8695H5.39672ZM18.6032 20.8695H17.1032V22.3695H18.6032V20.8695ZM19.8261 20.8695V22.3695H21.3261V20.8695H19.8261ZM18.5945 14.2749C17.5818 13.2622 16.3721 12.5087 15.0492 12.0522L14.0706 14.8882C14.9617 15.1956 15.7811 15.7042 16.4732 16.3962L18.5945 14.2749ZM15.4108 14.7055C16.9838 13.6221 18.0244 11.8031 18.0244 9.74174H15.0244C15.0244 10.7709 14.5072 11.6851 13.7091 12.2349L15.4108 14.7055ZM18.0244 9.74174C18.0244 6.41854 15.3232 3.71729 12 3.71729V6.71729C13.6663 6.71729 15.0244 8.07539 15.0244 9.74174H18.0244ZM12 3.71729C8.67677 3.71729 5.97552 6.41854 5.97552 9.74174H8.97552C8.97552 8.07539 10.3336 6.71729 12 6.71729V3.71729ZM5.97552 9.74174C5.97552 11.8031 7.01614 13.6221 8.58923 14.7056L10.2909 12.2348C9.49272 11.6851 8.97552 10.7709 8.97552 9.74174H5.97552ZM8.95076 12.0522C7.62792 12.5087 6.41816 13.2622 5.40547 14.2749L7.52675 16.3962C8.21886 15.7042 9.03826 15.1956 9.92934 14.8882L8.95076 12.0522ZM5.40544 14.2749C3.646 16.0344 2.67389 18.3812 2.67389 20.8695H5.67389C5.67389 19.1769 6.32991 17.5931 7.52678 16.3962L5.40544 14.2749ZM4.17389 22.3695H5.39672V19.3695H4.17389V22.3695ZM6.89672 20.8695C6.89672 18.0568 9.18735 15.7662 12 15.7662V12.7662C7.53049 12.7662 3.89672 16.4 3.89672 20.8695H6.89672ZM12 15.7662C14.8126 15.7662 17.1032 18.0568 17.1032 20.8695H20.1032C20.1032 16.4 16.4695 12.7662 12 12.7662V15.7662ZM18.6032 22.3695H19.8261V19.3695H18.6032V22.3695ZM21.3261 20.8695C21.3261 18.3812 20.354 16.0344 18.5946 14.2749L16.4732 16.3962C17.67 17.5931 18.3261 19.1769 18.3261 20.8695H21.3261ZM12 11.5434C11.0079 11.5434 10.1983 10.7338 10.1983 9.74174H7.19835C7.19835 12.3907 9.35105 14.5434 12 14.5434V11.5434ZM10.1983 9.74174C10.1983 8.74963 11.0079 7.94011 12 7.94011V4.94011C9.35105 4.94011 7.19835 7.09276 7.19835 9.74174H10.1983ZM12 7.94011C12.9921 7.94011 13.8016 8.74963 13.8016 9.74174H16.8016C16.8016 7.09276 14.6489 4.94011 12 4.94011V7.94011ZM13.8016 9.74174C13.8016 10.7338 12.9921 11.5434 12 11.5434V14.5434C14.6489 14.5434 16.8016 12.3907 16.8016 9.74174H13.8016Z" fill="#1356BC" mask="url(#path-3-inside-1)"/>
</g>
</svg>
